 <svg version="1.0" xmlns="http://www.w3.org/2000/svg" width="700.000000pt" height="700.000000pt" viewBox="0 0 700.000000 700.000000" preserveAspectRatio="xMidYMid meet">
<metadata>
Created by potrace 1.12, written by Peter Selinger 2001-2015
</metadata>
<g transform="translate(0.000000,700.000000) scale(0.100000,-0.100000)" fill="#fff" fill-opacity="0.54" stroke="none">
<path d="M1365 5695 c-50 -51 -55 -74 -25 -120 11 -16 491 -501 1067 -1077
l1048 -1048 45 0 45 0 1048 1048 c576 576 1056 1062 1067 1080 28 46 25 62
-18 108 -48 53 -86 61 -127 28 -16 -14 -471 -466 -1010 -1005 -766 -765 -986
-979 -1005 -979 -19 0 -239 214 -1005 979 -539 539 -994 991 -1011 1005 -44
36 -67 33 -119 -19z"></path>
<path d="M1353 3510 c-35 -42 -42 -83 -19 -109 86 -96 2092 -2095 2124 -2116
l42 -28 42 28 c31 21 1972 1955 2118 2111 29 31 25 69 -12 114 -29 35 -38 40
-78 40 -25 0 -52 -5 -60 -10 -8 -5 -458 -452 -1001 -995 -747 -746 -991 -985
-1009 -985 -18 0 -261 238 -1004 980 -540 539 -990 986 -1001 994 -11 9 -40
15 -65 16 -40 0 -48 -5 -77 -40z"></path>
</g>
</svg>