 <svg version="1.0" xmlns="http://www.w3.org/2000/svg" width="700.000000pt" height="700.000000pt" viewBox="0 0 700.000000 700.000000" preserveAspectRatio="xMidYMid meet">
<metadata>
Created by potrace 1.12, written by Peter Selinger 2001-2015
</metadata>
<g transform="translate(0.000000,700.000000) scale(0.100000,-0.100000)" fill="#000000" stroke="none">
<path d="M2394 4666 c-1197 -1197 -1108 -1096 -1041 -1176 29 -35 37 -40 77
-40 25 1 54 7 65 16 11 8 461 455 1001 994 751 751 986 980 1004 980 18 0 253
-229 1004 -980 540 -539 990 -986 1001 -995 11 -8 41 -15 66 -15 40 0 49 4 64
28 10 15 24 31 32 35 20 12 15 62 -9 93 -44 53 -2073 2080 -2110 2107 -20 15
-46 27 -58 27 -16 0 -333 -311 -1096 -1074z"></path>
<path d="M2407 2503 c-576 -577 -1056 -1060 -1067 -1075 -30 -39 -25 -71 18
-115 43 -46 86 -61 111 -40 9 7 464 460 1011 1005 783 780 1000 992 1020 992
19 0 239 -214 1032 -1006 981 -981 1007 -1007 1038 -1001 39 8 110 82 110 115
0 13 -9 36 -20 50 -11 15 -492 498 -1068 1075 l-1047 1047 -46 0 -46 0 -1046
-1047z"></path>
</g>
</svg>